<svg xmlns="http://www.w3.org/2000/svg" width="360" height="740" viewBox="0 0 360 740" font-family="-apple-system, 'PingFang SC', 'Hiragino Sans GB', 'Microsoft YaHei', 'Noto Sans CJK SC', sans-serif">
  <!-- 机身 -->
  <rect x="0" y="0" width="360" height="740" rx="44" fill="#1B2430"/>
  <!-- 屏幕 -->
  <rect x="12" y="12" width="336" height="716" rx="32" fill="#FFFFFF"/>

  <!-- 状态栏 -->
  <text x="36" y="52" font-size="13" font-weight="700" fill="#1B2430">9:41</text>
  <text x="272" y="52" font-size="11" fill="#1B2430" text-anchor="middle">🔋 100%</text>
  <!-- 挖孔 -->
  <rect x="140" y="22" width="80" height="18" rx="9" fill="#1B2430"/>

  <!-- 顶栏 -->
  <text x="36" y="106" font-size="24" font-weight="800" fill="#1B2430">社区</text>
  <circle cx="316" cy="94" r="14" fill="#F6F8FC"/>
  <circle cx="316" cy="94" r="5" fill="#5A6B80"/>

  <!-- 提示 + 标题 -->
  <text x="36" y="142" font-size="12" fill="#5A6B80">挑选感兴趣的训练类型，下载后开练</text>
  <text x="36" y="174" font-size="15" font-weight="700" fill="#1B2430">训练集</text>

  <!-- 训练集 1：古诗词（已下载） -->
  <rect x="28" y="188" width="304" height="66" rx="12" fill="#F6F8FC"/>
  <rect x="44" y="204" width="30" height="30" rx="9" fill="#EAF0FF"/>
  <text x="59" y="225" font-size="14" text-anchor="middle">📖</text>
  <text x="86" y="214" font-size="14" font-weight="700" fill="#1B2430">古诗词</text>
  <rect x="146" y="202" width="36" height="16" rx="8" fill="#EAF0FF"/>
  <text x="164" y="214" font-size="10" font-weight="700" fill="#2F6BFF" text-anchor="middle">填空</text>
  <text x="86" y="236" font-size="10" fill="#5A6B80">经典古诗挖空补全 · 32 首</text>
  <text x="312" y="226" font-size="11" font-weight="700" fill="#1E8E4E" text-anchor="end">已下载 ✓</text>

  <!-- 训练集 2：英语常用词（已下载） -->
  <rect x="28" y="266" width="304" height="66" rx="12" fill="#F6F8FC"/>
  <rect x="44" y="282" width="30" height="30" rx="9" fill="#EAF0FF"/>
  <text x="59" y="303" font-size="14" text-anchor="middle">英</text>
  <text x="86" y="292" font-size="14" font-weight="700" fill="#1B2430">英语常用词</text>
  <rect x="162" y="280" width="36" height="16" rx="8" fill="#EAF0FF"/>
  <text x="180" y="292" font-size="10" font-weight="700" fill="#2F6BFF" text-anchor="middle">翻卡</text>
  <text x="86" y="314" font-size="10" fill="#5A6B80">50 个高频核心词</text>
  <text x="312" y="304" font-size="11" font-weight="700" fill="#1E8E4E" text-anchor="end">已下载 ✓</text>

  <!-- 训练集 3：日语基础词（未下载） -->
  <rect x="28" y="344" width="304" height="66" rx="12" fill="#F6F8FC"/>
  <rect x="44" y="360" width="30" height="30" rx="9" fill="#EAF0FF"/>
  <text x="59" y="381" font-size="14" text-anchor="middle">日</text>
  <text x="86" y="370" font-size="14" font-weight="700" fill="#1B2430">日语基础词</text>
  <rect x="162" y="358" width="36" height="16" rx="8" fill="#EAF0FF"/>
  <text x="180" y="370" font-size="10" font-weight="700" fill="#2F6BFF" text-anchor="middle">翻卡</text>
  <text x="86" y="392" font-size="10" fill="#5A6B80">JLPT N5 高频词汇 · 60 词</text>
  <text x="312" y="382" font-size="11" fill="#5A6B80" text-anchor="end">下载</text>

  <!-- 训练集 4：趣味常识（未下载） -->
  <rect x="28" y="422" width="304" height="66" rx="12" fill="#F6F8FC"/>
  <rect x="44" y="438" width="30" height="30" rx="9" fill="#EAF0FF"/>
  <text x="59" y="459" font-size="14" text-anchor="middle">🎯</text>
  <text x="86" y="448" font-size="14" font-weight="700" fill="#1B2430">趣味常识</text>
  <rect x="146" y="436" width="36" height="16" rx="8" fill="#EAF0FF"/>
  <text x="164" y="448" font-size="10" font-weight="700" fill="#2F6BFF" text-anchor="middle">单选</text>
  <text x="86" y="470" font-size="10" fill="#5A6B80">20 道常识趣味单选</text>
  <text x="312" y="460" font-size="11" fill="#5A6B80" text-anchor="end">下载</text>

  <!-- 底部导航 -->
  <line x1="12" y1="648" x2="348" y2="648" stroke="#E3E9F2"/>
  <text x="90" y="682" font-size="13" fill="#5A6B80" text-anchor="middle">训练</text>
  <rect x="210" y="660" width="60" height="34" rx="10" fill="#EAF0FF"/>
  <text x="240" y="682" font-size="13" font-weight="700" fill="#2F6BFF" text-anchor="middle">社区</text>
</svg>